<?xml version="1.0" standalone="no"?>
<!DOCTYPE svg PUBLIC "-//W3C//DTD SVG 20010904//EN"
 "http://www.w3.org/TR/2001/REC-SVG-20010904/DTD/svg10.dtd">
<svg version="1.0" xmlns="http://www.w3.org/2000/svg"
 width="196.000000pt" height="196.000000pt" viewBox="0 0 196.000000 196.000000"
 preserveAspectRatio="xMidYMid meet">
<metadata>
Created by potrace 1.14, written by Peter Selinger 2001-2017
</metadata>
<g transform="translate(0.000000,196.000000) scale(0.100000,-0.100000)"
fill="#000000" stroke="none">
<path d="M1417 1774 c-1 -1 -38 -4 -82 -7 -202 -16 -472 -120 -691 -268 -289
-195 -500 -441 -588 -687 -28 -78 -31 -99 -31 -202 0 -110 1 -118 33 -182 78
-160 245 -240 482 -233 63 2 129 6 145 9 151 30 306 83 455 159 l85 43 0 527
c0 290 -1 527 -2 527 -1 0 -35 -48 -75 -106 -40 -59 -80 -116 -88 -128 -8 -11
-52 -70 -99 -131 -332 -430 -537 -600 -690 -573 -77 13 -111 62 -111 161 0
229 228 526 577 751 39 25 75 46 78 46 4 0 19 8 33 19 53 37 271 123 343 136
19 3 52 10 74 15 22 5 87 8 145 6 121 -3 192 -29 247 -87 121 -130 53 -383
-172 -634 l-60 -67 0 -159 c0 -87 3 -158 7 -156 16 6 119 97 181 161 264 272
378 570 302 789 -58 168 -210 259 -453 271 -23 1 -44 1 -45 0z"/>
</g>
</svg>
